# xmcd CD database file
#
# Track frame offsets:
#	150
#	14359
#	32798
#	47679
#	77553
#	95178
#	107300
#	125948
#	138741
#	169904
#	184270
#	200095
#	217693
#	237699
#	256856
#	275471
#	285579
#	292255
#
# Disc length: 4182 seconds
#
# Revision: 0
# Processed by: cddbd v1.5.1PL0 Copyright (c) Steve Scherf et al.
# Submitted via: CDex 1.51
#
DISCID=19105412
DTITLE=Asylum Street Spankers - Pussycat
DYEAR=2005
DGENRE=Jazz
TTITLE0=The Pussycat Song
TTITLE1=Watching the River Flow
TTITLE2=Got My Mojo Working
TTITLE3=Home
TTITLE4=Rumble with Madeat
TTITLE5=Ring-Tail Tom
TTITLE6=Smokey Dokey
TTITLE7=Baby Won't You Please Come Home
TTITLE8=Since Wammo Met You Baby
TTITLE9=Dinah
TTITLE10=Jug Band Music
TTITLE11=Bluesy Little Tune
TTITLE12=Whiskey Love Song
TTITLE13=Topsy
TTITLE14=You Made the Night Too Long
TTITLE15=Can't You Tell
TTITLE16=The Birthday Spanking Song
TTITLE17=Closer (I Wanna Fuck You Like an Animal)
EXTD=YEAR: 2005
EXTT0=
EXTT1=
EXTT2=
EXTT3=
EXTT4=
EXTT5=
EXTT6=
EXTT7=
EXTT8=
EXTT9=
EXTT10=
EXTT11=
EXTT12=
EXTT13=
EXTT14=
EXTT15=
EXTT16=
EXTT17=
PLAYORDER=
